<mxfile host="app.diagrams.net" modified="2022-08-17T06:07:22.921Z" agent="5.0 (Windows NT 10.0; Win64; x64) AppleWebKit/537.36 (KHTML, like Gecko) Chrome/103.0.0.0 Safari/537.36" etag="wXGc4GpyGuZx7KCY19eb" version="20.2.3" type="github">
  <diagram id="t-mAmIeX9hOmfcvnJupY" name="第 1 页">
    <mxGraphModel dx="2249" dy="762" grid="1" gridSize="10" guides="1" tooltips="1" connect="1" arrows="1" fold="1" page="1" pageScale="1" pageWidth="827" pageHeight="1169" math="0" shadow="0">
      <root>
        <mxCell id="0" />
        <mxCell id="1" parent="0" />
        <mxCell id="vNjQRDRVUAhSrhf9HLrK-1" value="" style="endArrow=classic;html=1;rounded=0;strokeWidth=2;exitX=1;exitY=0.5;exitDx=0;exitDy=0;entryX=0;entryY=0.5;entryDx=0;entryDy=0;" parent="1" source="vNjQRDRVUAhSrhf9HLrK-2" target="vNjQRDRVUAhSrhf9HLrK-7" edge="1">
          <mxGeometry width="50" height="50" relative="1" as="geometry">
            <mxPoint x="80" y="60" as="sourcePoint" />
            <mxPoint x="800" y="60" as="targetPoint" />
          </mxGeometry>
        </mxCell>
        <mxCell id="vNjQRDRVUAhSrhf9HLrK-2" value="&lt;span style=&quot;font-size: 16px;&quot;&gt;客户端&lt;/span&gt;" style="text;html=1;strokeColor=none;fillColor=none;align=center;verticalAlign=middle;whiteSpace=wrap;rounded=0;" parent="1" vertex="1">
          <mxGeometry y="40" width="80" height="40" as="geometry" />
        </mxCell>
        <mxCell id="vNjQRDRVUAhSrhf9HLrK-17" style="edgeStyle=orthogonalEdgeStyle;rounded=0;orthogonalLoop=1;jettySize=auto;html=1;exitX=1;exitY=0.5;exitDx=0;exitDy=0;fontSize=16;strokeWidth=2;" parent="1" source="vNjQRDRVUAhSrhf9HLrK-7" target="vNjQRDRVUAhSrhf9HLrK-14" edge="1">
          <mxGeometry relative="1" as="geometry" />
        </mxCell>
        <mxCell id="vNjQRDRVUAhSrhf9HLrK-7" value="需求开发" style="rounded=0;whiteSpace=wrap;html=1;fontSize=16;strokeWidth=2;fillColor=none;" parent="1" vertex="1">
          <mxGeometry x="120" y="40" width="120" height="40" as="geometry" />
        </mxCell>
        <mxCell id="vNjQRDRVUAhSrhf9HLrK-8" value="" style="endArrow=classic;html=1;rounded=0;strokeWidth=2;exitX=1;exitY=0.5;exitDx=0;exitDy=0;entryX=0;entryY=0.5;entryDx=0;entryDy=0;" parent="1" source="vNjQRDRVUAhSrhf9HLrK-9" target="vNjQRDRVUAhSrhf9HLrK-10" edge="1">
          <mxGeometry width="50" height="50" relative="1" as="geometry">
            <mxPoint x="80" y="140" as="sourcePoint" />
            <mxPoint x="800" y="140" as="targetPoint" />
          </mxGeometry>
        </mxCell>
        <mxCell id="vNjQRDRVUAhSrhf9HLrK-9" value="&lt;span style=&quot;font-size: 16px;&quot;&gt;Web&lt;/span&gt;" style="text;html=1;strokeColor=none;fillColor=none;align=center;verticalAlign=middle;whiteSpace=wrap;rounded=0;" parent="1" vertex="1">
          <mxGeometry y="120" width="80" height="40" as="geometry" />
        </mxCell>
        <mxCell id="vNjQRDRVUAhSrhf9HLrK-18" style="edgeStyle=orthogonalEdgeStyle;rounded=0;orthogonalLoop=1;jettySize=auto;html=1;exitX=1;exitY=0.5;exitDx=0;exitDy=0;entryX=0;entryY=0.5;entryDx=0;entryDy=0;fontSize=16;strokeWidth=2;" parent="1" source="vNjQRDRVUAhSrhf9HLrK-10" target="vNjQRDRVUAhSrhf9HLrK-15" edge="1">
          <mxGeometry relative="1" as="geometry" />
        </mxCell>
        <mxCell id="vNjQRDRVUAhSrhf9HLrK-10" value="需求开发" style="rounded=0;whiteSpace=wrap;html=1;fontSize=16;strokeWidth=2;fillColor=none;" parent="1" vertex="1">
          <mxGeometry x="120" y="120" width="120" height="40" as="geometry" />
        </mxCell>
        <mxCell id="vNjQRDRVUAhSrhf9HLrK-11" value="" style="endArrow=classic;html=1;rounded=0;strokeWidth=2;exitX=1;exitY=0.5;exitDx=0;exitDy=0;entryX=0;entryY=0.5;entryDx=0;entryDy=0;" parent="1" source="vNjQRDRVUAhSrhf9HLrK-12" target="vNjQRDRVUAhSrhf9HLrK-13" edge="1">
          <mxGeometry width="50" height="50" relative="1" as="geometry">
            <mxPoint x="80" y="220" as="sourcePoint" />
            <mxPoint x="800" y="220" as="targetPoint" />
          </mxGeometry>
        </mxCell>
        <mxCell id="vNjQRDRVUAhSrhf9HLrK-12" value="&lt;span style=&quot;font-size: 16px;&quot;&gt;Server&lt;/span&gt;" style="text;html=1;strokeColor=none;fillColor=none;align=center;verticalAlign=middle;whiteSpace=wrap;rounded=0;" parent="1" vertex="1">
          <mxGeometry y="200" width="80" height="40" as="geometry" />
        </mxCell>
        <mxCell id="vNjQRDRVUAhSrhf9HLrK-19" style="edgeStyle=orthogonalEdgeStyle;rounded=0;orthogonalLoop=1;jettySize=auto;html=1;exitX=1;exitY=0.5;exitDx=0;exitDy=0;entryX=0;entryY=0.5;entryDx=0;entryDy=0;fontSize=16;strokeWidth=2;" parent="1" source="vNjQRDRVUAhSrhf9HLrK-13" target="vNjQRDRVUAhSrhf9HLrK-16" edge="1">
          <mxGeometry relative="1" as="geometry" />
        </mxCell>
        <mxCell id="vNjQRDRVUAhSrhf9HLrK-13" value="需求开发" style="rounded=0;whiteSpace=wrap;html=1;fontSize=16;strokeWidth=2;fillColor=none;" parent="1" vertex="1">
          <mxGeometry x="120" y="200" width="120" height="40" as="geometry" />
        </mxCell>
        <mxCell id="vNjQRDRVUAhSrhf9HLrK-28" style="edgeStyle=orthogonalEdgeStyle;rounded=0;orthogonalLoop=1;jettySize=auto;html=1;exitX=1;exitY=0.5;exitDx=0;exitDy=0;fontSize=16;strokeColor=default;strokeWidth=2;entryX=0;entryY=0.5;entryDx=0;entryDy=0;" parent="1" source="vNjQRDRVUAhSrhf9HLrK-14" target="vNjQRDRVUAhSrhf9HLrK-24" edge="1">
          <mxGeometry relative="1" as="geometry">
            <mxPoint x="470" y="60.39999999999998" as="targetPoint" />
          </mxGeometry>
        </mxCell>
        <mxCell id="vNjQRDRVUAhSrhf9HLrK-14" value="联调" style="rounded=0;whiteSpace=wrap;html=1;fontSize=16;strokeWidth=2;fillColor=none;" parent="1" vertex="1">
          <mxGeometry x="320" y="40" width="120" height="40" as="geometry" />
        </mxCell>
        <mxCell id="vNjQRDRVUAhSrhf9HLrK-35" style="edgeStyle=orthogonalEdgeStyle;rounded=0;orthogonalLoop=1;jettySize=auto;html=1;exitX=1;exitY=0.5;exitDx=0;exitDy=0;entryX=0;entryY=0.5;entryDx=0;entryDy=0;fontSize=16;strokeColor=default;strokeWidth=2;" parent="1" source="vNjQRDRVUAhSrhf9HLrK-15" target="vNjQRDRVUAhSrhf9HLrK-32" edge="1">
          <mxGeometry relative="1" as="geometry" />
        </mxCell>
        <mxCell id="vNjQRDRVUAhSrhf9HLrK-15" value="联调" style="rounded=0;whiteSpace=wrap;html=1;fontSize=16;strokeWidth=2;fillColor=none;" parent="1" vertex="1">
          <mxGeometry x="320" y="120" width="120" height="40" as="geometry" />
        </mxCell>
        <mxCell id="vNjQRDRVUAhSrhf9HLrK-34" style="edgeStyle=orthogonalEdgeStyle;rounded=0;orthogonalLoop=1;jettySize=auto;html=1;exitX=1;exitY=0.5;exitDx=0;exitDy=0;fontSize=16;strokeColor=default;strokeWidth=2;" parent="1" source="vNjQRDRVUAhSrhf9HLrK-16" target="vNjQRDRVUAhSrhf9HLrK-33" edge="1">
          <mxGeometry relative="1" as="geometry" />
        </mxCell>
        <mxCell id="vNjQRDRVUAhSrhf9HLrK-16" value="联调" style="rounded=0;whiteSpace=wrap;html=1;fontSize=16;strokeWidth=2;fillColor=none;" parent="1" vertex="1">
          <mxGeometry x="320" y="200" width="120" height="40" as="geometry" />
        </mxCell>
        <mxCell id="vNjQRDRVUAhSrhf9HLrK-29" style="edgeStyle=orthogonalEdgeStyle;rounded=0;orthogonalLoop=1;jettySize=auto;html=1;exitX=1;exitY=0.5;exitDx=0;exitDy=0;entryX=0;entryY=0.5;entryDx=0;entryDy=0;fontSize=16;strokeColor=default;strokeWidth=2;" parent="1" source="vNjQRDRVUAhSrhf9HLrK-24" target="vNjQRDRVUAhSrhf9HLrK-25" edge="1">
          <mxGeometry relative="1" as="geometry" />
        </mxCell>
        <mxCell id="vNjQRDRVUAhSrhf9HLrK-24" value="测试环境验证" style="rounded=0;whiteSpace=wrap;html=1;fontSize=16;strokeWidth=2;fillColor=none;" parent="1" vertex="1">
          <mxGeometry x="520" y="40" width="120" height="40" as="geometry" />
        </mxCell>
        <mxCell id="vNjQRDRVUAhSrhf9HLrK-30" style="edgeStyle=orthogonalEdgeStyle;rounded=0;orthogonalLoop=1;jettySize=auto;html=1;exitX=1;exitY=0.5;exitDx=0;exitDy=0;entryX=0;entryY=0.5;entryDx=0;entryDy=0;fontSize=16;strokeColor=default;strokeWidth=2;" parent="1" source="vNjQRDRVUAhSrhf9HLrK-25" target="vNjQRDRVUAhSrhf9HLrK-26" edge="1">
          <mxGeometry relative="1" as="geometry" />
        </mxCell>
        <mxCell id="vNjQRDRVUAhSrhf9HLrK-25" value="&lt;font color=&quot;#ff0000&quot;&gt;正式环境验证&lt;/font&gt;" style="rounded=0;whiteSpace=wrap;html=1;fontSize=16;strokeWidth=2;fillColor=none;" parent="1" vertex="1">
          <mxGeometry x="720" y="40" width="120" height="40" as="geometry" />
        </mxCell>
        <mxCell id="vNjQRDRVUAhSrhf9HLrK-31" style="edgeStyle=orthogonalEdgeStyle;rounded=0;orthogonalLoop=1;jettySize=auto;html=1;exitX=1;exitY=0.5;exitDx=0;exitDy=0;entryX=0;entryY=0.5;entryDx=0;entryDy=0;fontSize=16;strokeColor=default;strokeWidth=2;" parent="1" source="vNjQRDRVUAhSrhf9HLrK-26" target="vNjQRDRVUAhSrhf9HLrK-27" edge="1">
          <mxGeometry relative="1" as="geometry" />
        </mxCell>
        <mxCell id="vNjQRDRVUAhSrhf9HLrK-26" value="合入主干分支" style="rounded=0;whiteSpace=wrap;html=1;fontSize=16;strokeWidth=2;fillColor=none;" parent="1" vertex="1">
          <mxGeometry x="920" y="40" width="120" height="40" as="geometry" />
        </mxCell>
        <mxCell id="vNjQRDRVUAhSrhf9HLrK-27" value="随最近版本发布" style="rounded=0;whiteSpace=wrap;html=1;fontSize=16;strokeWidth=2;fillColor=none;" parent="1" vertex="1">
          <mxGeometry x="1120" y="40" width="120" height="40" as="geometry" />
        </mxCell>
        <mxCell id="vNjQRDRVUAhSrhf9HLrK-32" value="&lt;font color=&quot;#ff0000&quot;&gt;？&lt;/font&gt;" style="rounded=0;whiteSpace=wrap;html=1;fontSize=16;strokeWidth=2;fillColor=none;" parent="1" vertex="1">
          <mxGeometry x="520" y="120" width="720" height="40" as="geometry" />
        </mxCell>
        <mxCell id="vNjQRDRVUAhSrhf9HLrK-33" value="&lt;font color=&quot;#ff0000&quot;&gt;？&lt;/font&gt;" style="rounded=0;whiteSpace=wrap;html=1;fontSize=16;strokeWidth=2;fillColor=none;" parent="1" vertex="1">
          <mxGeometry x="520" y="200" width="720" height="40" as="geometry" />
        </mxCell>
        <mxCell id="vNjQRDRVUAhSrhf9HLrK-43" value="" style="shape=curlyBracket;whiteSpace=wrap;html=1;rounded=1;fontSize=16;fontColor=#FF0000;strokeWidth=2;fillColor=none;" parent="1" vertex="1">
          <mxGeometry x="-20" y="40" width="20" height="200" as="geometry" />
        </mxCell>
        <mxCell id="vNjQRDRVUAhSrhf9HLrK-44" value="&lt;font color=&quot;#000000&quot;&gt;通常流程&lt;/font&gt;" style="text;html=1;strokeColor=none;fillColor=none;align=center;verticalAlign=middle;whiteSpace=wrap;rounded=0;fontSize=16;fontColor=#FF0000;fontStyle=1" parent="1" vertex="1">
          <mxGeometry x="-160" y="120" width="120" height="40" as="geometry" />
        </mxCell>
        <mxCell id="yOjoLxol6aKsbP7uPrSQ-3" style="rounded=0;orthogonalLoop=1;jettySize=auto;html=1;exitX=0.5;exitY=1;exitDx=0;exitDy=0;entryX=0.25;entryY=0;entryDx=0;entryDy=0;fontSize=12;fontColor=#FF0000;strokeColor=#666666;strokeWidth=2;fillColor=#f5f5f5;" edge="1" parent="1" source="vNjQRDRVUAhSrhf9HLrK-45" target="yOjoLxol6aKsbP7uPrSQ-2">
          <mxGeometry relative="1" as="geometry" />
        </mxCell>
        <mxCell id="vNjQRDRVUAhSrhf9HLrK-45" value="&lt;font color=&quot;#000000&quot;&gt;异常流程&lt;br&gt;出现&lt;/font&gt;XX&lt;font color=&quot;#000000&quot;&gt;情况&lt;br&gt;&lt;/font&gt;" style="text;html=1;strokeColor=none;fillColor=none;align=center;verticalAlign=middle;whiteSpace=wrap;rounded=0;fontSize=16;fontColor=#FF0000;fontStyle=1" parent="1" vertex="1">
          <mxGeometry x="-160" y="360" width="120" height="40" as="geometry" />
        </mxCell>
        <mxCell id="vNjQRDRVUAhSrhf9HLrK-46" value="" style="shape=curlyBracket;whiteSpace=wrap;html=1;rounded=1;fontSize=16;fontColor=#FF0000;strokeWidth=2;fillColor=none;" parent="1" vertex="1">
          <mxGeometry x="-20" y="280" width="20" height="200" as="geometry" />
        </mxCell>
        <mxCell id="yOjoLxol6aKsbP7uPrSQ-2" value="&lt;span style=&quot;color: rgb(0, 0, 0); font-size: 12px;&quot;&gt;需求变动、&lt;/span&gt;&lt;font color=&quot;#000000&quot; style=&quot;font-size: 12px;&quot;&gt;需求延期、临时回滚……&lt;br style=&quot;font-size: 12px;&quot;&gt;&lt;/font&gt;" style="text;html=1;strokeColor=none;fillColor=none;align=center;verticalAlign=middle;whiteSpace=wrap;rounded=0;fontSize=12;fontColor=#FF0000;fontStyle=0" vertex="1" parent="1">
          <mxGeometry x="-160" y="480" width="280" height="40" as="geometry" />
        </mxCell>
      </root>
    </mxGraphModel>
  </diagram>
</mxfile>
